<svg width="64" height="64" viewBox="0 0 64 64" fill="none" xmlns="http://www.w3.org/2000/svg">
<rect width="64" height="64" rx="32" fill="#5865F2"/>
<path d="M45.5119 18.4758C43.0891 17.3299 40.4911 16.4856 37.7746 16.002C37.7252 15.9927 37.6758 16.016 37.6503 16.0627C37.3161 16.6753 36.946 17.4744 36.6869 18.1026C33.7652 17.6517 30.8585 17.6517 27.9967 18.1026C27.7375 17.4605 27.3539 16.6753 27.0183 16.0627C26.9928 16.0176 26.9434 15.9943 26.8939 16.002C24.179 16.484 21.5809 17.3283 19.1567 18.4758C19.1357 18.4851 19.1177 18.5007 19.1058 18.5209C14.1778 26.1101 12.8278 33.5127 13.4901 40.8236C13.4931 40.8593 13.5126 40.8935 13.5395 40.9153C16.7909 43.3766 19.9403 44.8708 23.0313 45.8612C23.0808 45.8768 23.1332 45.8581 23.1647 45.8161C23.8958 44.7869 24.5476 43.7016 25.1064 42.5603C25.1394 42.4935 25.1079 42.4142 25.0405 42.3877C24.0067 41.9835 23.0223 41.4906 22.0754 40.9309C22.0005 40.8858 21.9945 40.7753 22.0634 40.7225C22.2626 40.5685 22.462 40.4084 22.6522 40.2467C22.6867 40.2172 22.7346 40.2109 22.7751 40.2296C28.996 43.1574 35.7309 43.1574 41.8785 40.2296C41.9189 40.2094 41.9669 40.2156 42.0028 40.2451C42.1932 40.4068 42.3924 40.5685 42.5932 40.7225C42.6621 40.7753 42.6576 40.8858 42.5827 40.9309C41.6358 41.5014 40.6514 41.9835 39.616 42.3862C39.5486 42.4126 39.5187 42.4935 39.5516 42.5603C40.1225 43.7 40.7742 44.7853 41.4919 45.8146C41.5219 45.8581 41.5758 45.8768 41.6253 45.8612C44.7312 44.8708 47.8807 43.3766 51.132 40.9153C51.1605 40.8935 51.1785 40.8609 51.1815 40.8251C51.974 32.3729 49.8539 25.031 45.5613 18.5224C45.5508 18.5007 45.5329 18.4851 45.5119 18.4758ZM26.0354 36.372C24.1625 36.372 22.6193 34.5995 22.6193 32.4227C22.6193 30.2459 24.1326 28.4734 26.0354 28.4734C27.9532 28.4734 29.4815 30.2615 29.4515 32.4227C29.4515 34.5995 27.9382 36.372 26.0354 36.372ZM38.6661 36.372C36.7932 36.372 35.25 34.5995 35.25 32.4227C35.25 30.2459 36.7633 28.4734 38.6661 28.4734C40.584 28.4734 42.1122 30.2615 42.0823 32.4227C42.0823 34.5995 40.584 36.372 38.6661 36.372Z" fill="white"/>
</svg>
