<svg width="1710" height="186" viewBox="0 0 1710 166" fill="none" xmlns="http://www.w3.org/2000/svg">
<path d="M0.415108 3.2189V1.2189H-1.58489V3.2189H0.415108ZM66.5444 12.3402L65.1124 13.7364L65.1212 13.7454L65.1302 13.7544L66.5444 12.3402ZM71.3331 66.3838L69.5655 65.448L69.5546 65.4685L69.5442 65.4893L71.3331 66.3838ZM59.2474 77.5573L58.4781 75.7112L57.2474 76.224V77.5573H59.2474ZM59.2474 78.0134H57.2474V79.4439L58.6011 79.9061L59.2474 78.0134ZM68.1406 153.264L69.5548 154.678L69.5548 154.678L68.1406 153.264ZM0.415108 162.841H-1.58489V164.841H0.415108V162.841ZM46.4776 64.3315L45.0634 62.9173L45.0419 62.9387L45.0212 62.9608L46.4776 64.3315ZM47.1617 29.8987L45.573 31.1136L45.5949 31.1422L45.6178 31.1701L47.1617 29.8987ZM25.4986 26.0221V24.0221H23.4986V26.0221H25.4986ZM25.4986 68.208H23.4986V70.208H25.4986V68.208ZM49.67 136.618L51.1321 137.982L51.154 137.959L51.1752 137.935L49.67 136.618ZM48.9859 95.3438L47.4561 96.6321L47.4928 96.6757L47.5319 96.7171L48.9859 95.3438ZM25.4986 91.0112V89.0112H23.4986V91.0112H25.4986ZM25.4986 140.038H23.4986V142.038H25.4986V140.038ZM0.415108 5.2189H38.2684V1.2189H0.415108V5.2189ZM38.2684 5.2189C50.9284 5.2189 59.7174 8.20304 65.1124 13.7364L67.9764 10.944C61.5137 4.31562 51.4521 1.2189 38.2684 1.2189V5.2189ZM65.1302 13.7544C70.5351 19.1593 73.4376 27.7407 73.4376 39.9321H77.4376C77.4376 27.1919 74.4113 17.3787 67.9586 10.926L65.1302 13.7544ZM73.4376 39.9321V46.3169H77.4376V39.9321H73.4376ZM73.4376 46.3169C73.4376 54.324 72.1002 60.6603 69.5655 65.448L73.1006 67.3195C76.0387 61.7698 77.4376 54.7282 77.4376 46.3169H73.4376ZM69.5442 65.4893C67.1805 70.2167 63.5204 73.6102 58.4781 75.7112L60.0166 79.4035C65.9198 76.9438 70.3169 72.8883 73.1219 67.2782L69.5442 65.4893ZM57.2474 77.5573V78.0134H61.2474V77.5573H57.2474ZM58.6011 79.9061C64.3861 81.8815 68.6612 85.4049 71.5275 90.5084C74.4212 95.6604 75.946 102.547 75.946 111.306H79.946C79.946 102.127 78.3544 94.4952 75.0151 88.5496C71.6486 82.5556 66.5744 78.4019 59.8937 76.1207L58.6011 79.9061ZM75.946 111.306V124.988H79.946V111.306H75.946ZM75.946 124.988C75.946 136.953 72.7766 145.8 66.7264 151.85L69.5548 154.678C76.5784 147.655 79.946 137.65 79.946 124.988H75.946ZM66.7264 151.85C60.8407 157.735 52.0059 160.841 39.8646 160.841V164.841C52.6549 164.841 62.6708 161.562 69.5548 154.678L66.7264 151.85ZM39.8646 160.841H0.415108V164.841H39.8646V160.841ZM2.41511 162.841V3.2189H-1.58489V162.841H2.41511ZM35.304 70.208C40.6393 70.208 44.9893 68.831 47.934 65.7022L45.0212 62.9608C43.1012 65.0007 40.0021 66.208 35.304 66.208V70.208ZM47.8918 65.7457C51.0347 62.6027 52.3541 57.6118 52.3541 51.3337H48.3541C48.3541 57.2172 47.0891 60.8915 45.0634 62.9173L47.8918 65.7457ZM52.3541 51.3337V42.4404H48.3541V51.3337H52.3541ZM52.3541 42.4404C52.3541 36.5048 51.2772 31.75 48.7055 28.6272L45.6178 31.1701C47.3027 33.216 48.3541 36.8224 48.3541 42.4404H52.3541ZM48.7504 28.6838C46.2716 25.4422 42.3782 24.0221 37.5843 24.0221V28.0221C41.6077 28.0221 44.0992 29.1864 45.573 31.1136L48.7504 28.6838ZM37.5843 24.0221H25.4986V28.0221H37.5843V24.0221ZM23.4986 26.0221V68.208H27.4986V26.0221H23.4986ZM25.4986 70.208H35.304V66.208H25.4986V70.208ZM39.8646 142.038C44.5934 142.038 48.4909 140.812 51.1321 137.982L48.2079 135.253C46.5925 136.984 43.9532 138.038 39.8646 138.038V142.038ZM51.1752 137.935C53.7926 134.943 54.8625 130.222 54.8625 124.304H50.8625C50.8625 129.939 49.8041 133.427 48.1649 135.301L51.1752 137.935ZM54.8625 124.304V110.394H50.8625V124.304H54.8625ZM54.8625 110.394C54.8625 103.005 53.5837 97.2993 50.4399 93.9706L47.5319 96.7171C49.5569 98.8612 50.8625 103.189 50.8625 110.394H54.8625ZM50.5157 94.0556C47.5389 90.5205 42.7239 89.0112 36.6722 89.0112V93.0112C42.1741 93.0112 45.5683 94.3903 47.4561 96.6321L50.5157 94.0556ZM36.6722 89.0112H25.4986V93.0112H36.6722V89.0112ZM23.4986 91.0112V140.038H27.4986V91.0112H23.4986ZM25.4986 142.038H39.8646V138.038H25.4986V142.038ZM119.972 3.2189V1.2189H117.972V3.2189H119.972ZM145.055 3.2189H147.055V1.2189H145.055V3.2189ZM145.055 162.841V164.841H147.055V162.841H145.055ZM119.972 162.841H117.972V164.841H119.972V162.841ZM119.972 5.2189H145.055V1.2189H119.972V5.2189ZM143.055 3.2189V162.841H147.055V3.2189H143.055ZM145.055 160.841H119.972V164.841H145.055V160.841ZM121.972 162.841V3.2189H117.972V162.841H121.972ZM191.205 3.2189V1.2189H189.205V3.2189H191.205ZM256.65 12.3402L255.218 13.7364L255.227 13.7454L255.236 13.7544L256.65 12.3402ZM249.125 81.2059L248.378 79.3507L247.125 79.8553V81.2059H249.125ZM249.125 81.6619H247.125V83.15L248.55 83.5776L249.125 81.6619ZM261.895 92.8355L260.059 93.6293L260.068 93.65L260.077 93.6705L261.895 92.8355ZM266.227 154.632L264.238 154.842L264.24 154.853L266.227 154.632ZM268.508 162.841V164.841H271.585L270.335 162.029L268.508 162.841ZM242.968 162.841L241.082 163.507L241.553 164.841H242.968V162.841ZM237.039 98.7643L235.47 100.004L235.489 100.028L235.509 100.053L237.039 98.7643ZM216.288 94.4317V92.4317H214.288V94.4317H216.288ZM216.288 162.841V164.841H218.288V162.841H216.288ZM191.205 162.841H189.205V164.841H191.205V162.841ZM236.583 67.752L235.169 66.3377L235.148 66.3592L235.127 66.3812L236.583 67.752ZM237.267 29.8987L235.679 31.1136L235.701 31.1422L235.723 31.1701L237.267 29.8987ZM216.288 26.0221V24.0221H214.288V26.0221H216.288ZM216.288 71.6285H214.288V73.6285H216.288V71.6285ZM191.205 5.2189H228.374V1.2189H191.205V5.2189ZM228.374 5.2189C241.034 5.2189 249.823 8.20304 255.218 13.7364L258.082 10.944C251.619 4.31562 241.558 1.2189 228.374 1.2189V5.2189ZM255.236 13.7544C260.641 19.1593 263.543 27.7407 263.543 39.9321H267.543C267.543 27.1919 264.517 17.3787 258.064 10.926L255.236 13.7544ZM263.543 39.9321V49.7374H267.543V39.9321H263.543ZM263.543 49.7374C263.543 57.822 262.205 64.2392 259.666 69.1071C257.149 73.9308 253.407 77.3248 248.378 79.3507L249.872 83.061C255.788 80.6782 260.256 76.6232 263.212 70.9574C266.145 65.3359 267.543 58.2231 267.543 49.7374H263.543ZM247.125 81.2059V81.6619H251.125V81.2059H247.125ZM248.55 83.5776C254.089 85.2393 257.87 88.5682 260.059 93.6293L263.73 92.0417C261.054 85.8532 256.322 81.7331 249.7 79.7463L248.55 83.5776ZM260.077 93.6705C262.495 98.9327 263.771 106.137 263.771 115.411H267.771C267.771 105.833 266.463 97.9879 263.712 92.0005L260.077 93.6705ZM263.771 115.411V143.459H267.771V115.411H263.771ZM263.771 143.459C263.771 148.055 263.924 151.856 264.238 154.842L268.216 154.423C267.923 151.631 267.771 147.984 267.771 143.459H263.771ZM264.24 154.853C264.568 157.811 265.388 160.746 266.68 163.654L270.335 162.029C269.195 159.464 268.495 156.926 268.215 154.411L264.24 154.853ZM268.508 160.841H242.968V164.841H268.508V160.841ZM244.854 162.176C243.979 159.697 243.409 157.401 243.126 155.28L239.161 155.809C239.487 158.249 240.133 160.816 241.082 163.507L244.854 162.176ZM243.126 155.28C242.842 153.148 242.688 149.166 242.688 143.231H238.688C238.688 149.152 238.838 153.38 239.161 155.809L243.126 155.28ZM242.688 143.231V114.042H238.688V143.231H242.688ZM242.688 114.042C242.688 106.653 241.482 100.936 238.569 97.476L235.509 100.053C237.461 102.37 238.688 106.838 238.688 114.042H242.688ZM238.609 97.525C235.775 93.9352 230.991 92.4317 224.954 92.4317V96.4317C230.47 96.4317 233.743 97.8166 235.47 100.004L238.609 97.525ZM224.954 92.4317H216.288V96.4317H224.954V92.4317ZM214.288 94.4317V162.841H218.288V94.4317H214.288ZM216.288 160.841H191.205V164.841H216.288V160.841ZM193.205 162.841V3.2189H189.205V162.841H193.205ZM225.41 73.6285C230.745 73.6285 235.095 72.2515 238.04 69.1227L235.127 66.3812C233.207 68.4212 230.108 69.6285 225.41 69.6285V73.6285ZM237.997 69.1662C241.14 66.0232 242.46 61.0322 242.46 54.7541H238.46C238.46 60.6377 237.195 64.312 235.169 66.3377L237.997 69.1662ZM242.46 54.7541V42.4404H238.46V54.7541H242.46ZM242.46 42.4404C242.46 36.5048 241.383 31.75 238.811 28.6272L235.723 31.1701C237.408 33.216 238.46 36.8224 238.46 42.4404H242.46ZM238.856 28.6838C236.377 25.4422 232.484 24.0221 227.69 24.0221V28.0221C231.713 28.0221 234.205 29.1864 235.679 31.1136L238.856 28.6838ZM227.69 24.0221H216.288V28.0221H227.69V24.0221ZM214.288 26.0221V71.6285H218.288V26.0221H214.288ZM216.288 73.6285H225.41V69.6285H216.288V73.6285ZM374.423 3.2189V1.2189H372.423V3.2189H374.423ZM399.507 3.2189H401.507V1.2189H399.507V3.2189ZM399.507 140.038H397.507V142.038H399.507V140.038ZM440.781 140.038H442.781V138.038H440.781V140.038ZM440.781 162.841V164.841H442.781V162.841H440.781ZM374.423 162.841H372.423V164.841H374.423V162.841ZM374.423 5.2189H399.507V1.2189H374.423V5.2189ZM397.507 3.2189V140.038H401.507V3.2189H397.507ZM399.507 142.038H440.781V138.038H399.507V142.038ZM438.781 140.038V162.841H442.781V140.038H438.781ZM440.781 160.841H374.423V164.841H440.781V160.841ZM376.423 162.841V3.2189H372.423V162.841H376.423ZM500.447 3.2189V1.2189H498.746L498.473 2.89742L500.447 3.2189ZM534.423 3.2189L536.397 2.89742L536.124 1.2189H534.423V3.2189ZM560.419 162.841V164.841H562.771L562.393 162.52L560.419 162.841ZM535.335 162.841L533.356 163.126L533.603 164.841H535.335V162.841ZM530.775 131.145L532.754 130.86L528.775 131.145H530.775ZM530.775 131.601V133.601H532.775V131.601H530.775ZM502.271 131.601V129.601H500.542L500.292 131.312L502.271 131.601ZM497.71 162.841V164.841H499.439L499.689 163.13L497.71 162.841ZM474.451 162.841L472.477 162.52L472.099 164.841H474.451V162.841ZM527.81 109.938V111.938H530.114L529.791 109.657L527.81 109.938ZM516.637 31.0388L518.617 30.7584L518.374 29.0388H516.637V31.0388ZM516.181 31.0388V29.0388H514.439L514.2 30.764L516.181 31.0388ZM505.235 109.938L503.254 109.663L502.939 111.938H505.235V109.938ZM500.447 5.2189H534.423V1.2189H500.447V5.2189ZM532.449 3.54038L558.445 163.163L562.393 162.52L536.397 2.89742L532.449 3.54038ZM560.419 160.841H535.335V164.841H560.419V160.841ZM537.315 162.556L532.754 130.86L528.795 131.43L533.356 163.126L537.315 162.556ZM528.775 131.145V131.601H532.775V131.145H528.775ZM530.775 129.601H502.271V133.601H530.775V129.601ZM500.292 131.312L495.731 162.552L499.689 163.13L504.25 131.89L500.292 131.312ZM497.71 160.841H474.451V164.841H497.71V160.841ZM476.425 163.163L502.421 3.54038L498.473 2.89742L472.477 162.52L476.425 163.163ZM529.791 109.657L518.617 30.7584L514.657 31.3193L525.83 110.218L529.791 109.657ZM516.637 29.0388H516.181V33.0388H516.637V29.0388ZM514.2 30.764L503.254 109.663L507.216 110.213L518.162 31.3136L514.2 30.764ZM505.235 111.938H527.81V107.938H505.235V111.938ZM599.952 3.2189V1.2189H597.952V3.2189H599.952ZM631.421 3.2189L633.358 2.72404L632.974 1.2189H631.421V3.2189ZM655.82 98.7643L653.882 99.2592L654.267 100.764H655.82V98.7643ZM656.276 98.7643V100.764H658.276V98.7643H656.276ZM656.276 3.2189V1.2189H654.276V3.2189H656.276ZM678.623 3.2189H680.623V1.2189H678.623V3.2189ZM678.623 162.841V164.841H680.623V162.841H678.623ZM652.856 162.841L650.919 163.342L651.307 164.841H652.856V162.841ZM622.755 46.3169L624.692 45.8167L624.304 44.3169H622.755V46.3169ZM622.299 46.3169V44.3169H620.299V46.3169H622.299ZM622.299 162.841V164.841H624.299V162.841H622.299ZM599.952 162.841H597.952V164.841H599.952V162.841ZM599.952 5.2189H631.421V1.2189H599.952V5.2189ZM629.483 3.71376L653.882 99.2592L657.758 98.2695L633.358 2.72404L629.483 3.71376ZM655.82 100.764H656.276V96.7643H655.82V100.764ZM658.276 98.7643V3.2189H654.276V98.7643H658.276ZM656.276 5.2189H678.623V1.2189H656.276V5.2189ZM676.623 3.2189V162.841H680.623V3.2189H676.623ZM678.623 160.841H652.856V164.841H678.623V160.841ZM654.792 162.341L624.692 45.8167L620.819 46.8172L650.919 163.342L654.792 162.341ZM622.755 44.3169H622.299V48.3169H622.755V44.3169ZM620.299 46.3169V162.841H624.299V46.3169H620.299ZM622.299 160.841H599.952V164.841H622.299V160.841ZM601.952 162.841V3.2189H597.952V162.841H601.952ZM732.384 154.86L730.907 156.209L730.914 156.217L730.921 156.225L732.384 154.86ZM732.384 11.4281L733.846 12.7927L733.853 12.7847L733.861 12.7766L732.384 11.4281ZM788.023 11.4281L786.546 12.7766L786.554 12.7847L786.561 12.7927L788.023 11.4281ZM797.601 54.7541V56.7541H799.601V54.7541H797.601ZM773.885 54.7541H771.885V56.7541H773.885V54.7541ZM773.885 95.5719H775.885V93.5719H773.885V95.5719ZM761.344 95.5719H759.344V97.5719H761.344V95.5719ZM761.344 72.7687V70.7687H759.344V72.7687H761.344ZM797.601 72.7687H799.601V70.7687H797.601V72.7687ZM788.023 154.86L789.486 156.225L789.493 156.217L789.5 156.209L788.023 154.86ZM760.203 163.122C748.421 163.122 739.747 159.819 733.846 153.496L730.921 156.225C737.789 163.583 747.662 167.122 760.203 167.122V163.122ZM733.861 153.512C727.918 147.004 724.806 137.595 724.806 124.988H720.806C720.806 138.225 724.079 148.731 730.907 156.209L733.861 153.512ZM724.806 124.988V41.0722H720.806V124.988H724.806ZM724.806 41.0722C724.806 28.4622 727.92 19.142 733.846 12.7927L730.921 10.0634C724.078 17.3961 720.806 27.8386 720.806 41.0722H724.806ZM733.861 12.7766C739.765 6.30928 748.434 2.93858 760.203 2.93858V-1.06142C747.65 -1.06142 737.771 2.56087 730.907 10.0795L733.861 12.7766ZM760.203 2.93858C771.973 2.93858 780.641 6.30928 786.546 12.7766L789.5 10.0795C782.636 2.56087 772.757 -1.06142 760.203 -1.06142V2.93858ZM786.561 12.7927C792.487 19.142 795.601 28.4622 795.601 41.0722H799.601C799.601 27.8386 796.329 17.3961 789.486 10.0634L786.561 12.7927ZM795.601 41.0722V54.7541H799.601V41.0722H795.601ZM797.601 52.7541H773.885V56.7541H797.601V52.7541ZM775.885 54.7541V39.476H771.885V54.7541H775.885ZM775.885 39.476C775.885 34.006 774.764 29.5316 772.178 26.4016C769.532 23.1984 765.64 21.7418 760.888 21.7418V25.7418C764.801 25.7418 767.408 26.9076 769.094 28.9491C770.841 31.0638 771.885 34.4565 771.885 39.476H775.885ZM760.888 21.7418C756.135 21.7418 752.243 23.1984 749.597 26.4016C747.012 29.5316 745.89 34.006 745.89 39.476H749.89C749.89 34.4565 750.934 31.0638 752.681 28.9491C754.368 26.9076 756.975 25.7418 760.888 25.7418V21.7418ZM745.89 39.476V126.812H749.89V39.476H745.89ZM745.89 126.812C745.89 132.212 747.014 136.634 749.606 139.727C752.256 142.887 756.145 144.318 760.888 144.318V140.318C756.965 140.318 754.355 139.165 752.672 137.157C750.932 135.081 749.89 131.75 749.89 126.812H745.89ZM760.888 144.318C765.63 144.318 769.519 142.887 772.169 139.727C774.761 136.634 775.885 132.212 775.885 126.812H771.885C771.885 131.75 770.843 135.081 769.103 137.157C767.42 139.165 764.81 140.318 760.888 140.318V144.318ZM775.885 126.812V95.5719H771.885V126.812H775.885ZM773.885 93.5719H761.344V97.5719H773.885V93.5719ZM763.344 95.5719V72.7687H759.344V95.5719H763.344ZM761.344 74.7687H797.601V70.7687H761.344V74.7687ZM795.601 72.7687V124.988H799.601V72.7687H795.601ZM795.601 124.988C795.601 137.595 792.489 147.004 786.546 153.512L789.5 156.209C796.328 148.731 799.601 138.225 799.601 124.988H795.601ZM786.561 153.496C780.659 159.819 771.986 163.122 760.203 163.122V167.122C772.744 167.122 782.618 163.583 789.486 156.225L786.561 153.496ZM904.954 3.2189V1.2189H902.954V3.2189H904.954ZM940.755 3.2189L942.736 2.94215L942.495 1.2189H940.755V3.2189ZM956.717 117.463L954.736 117.74L954.977 119.463H956.717V117.463ZM957.173 117.463V119.463H958.913L959.154 117.74L957.173 117.463ZM973.135 3.2189V1.2189H971.396L971.155 2.94215L973.135 3.2189ZM1008.94 3.2189H1010.94V1.2189H1008.94V3.2189ZM1008.94 162.841V164.841H1010.94V162.841H1008.94ZM985.221 162.841H983.221V164.841H985.221V162.841ZM985.221 41.9843H987.221V39.9843H985.221V41.9843ZM984.765 41.9843V39.9843H983.044L982.788 41.6858L984.765 41.9843ZM966.523 162.841V164.841H968.243L968.5 163.14L966.523 162.841ZM945.544 162.841L943.566 163.14L943.823 164.841H945.544V162.841ZM927.301 41.9843L929.279 41.6858L929.022 39.9843H927.301V41.9843ZM926.845 41.9843V39.9843H924.845V41.9843H926.845ZM926.845 162.841V164.841H928.845V162.841H926.845ZM904.954 162.841H902.954V164.841H904.954V162.841ZM904.954 5.2189H940.755V1.2189H904.954V5.2189ZM938.774 3.49565L954.736 117.74L958.698 117.186L942.736 2.94215L938.774 3.49565ZM956.717 119.463H957.173V115.463H956.717V119.463ZM959.154 117.74L975.116 3.49565L971.155 2.94215L955.192 117.186L959.154 117.74ZM973.135 5.2189H1008.94V1.2189H973.135V5.2189ZM1006.94 3.2189V162.841H1010.94V3.2189H1006.94ZM1008.94 160.841H985.221V164.841H1008.94V160.841ZM987.221 162.841V41.9843H983.221V162.841H987.221ZM985.221 39.9843H984.765V43.9843H985.221V39.9843ZM982.788 41.6858L964.545 162.543L968.5 163.14L986.743 42.2828L982.788 41.6858ZM966.523 160.841H945.544V164.841H966.523V160.841ZM947.521 162.543L929.279 41.6858L925.323 42.2828L943.566 163.14L947.521 162.543ZM927.301 39.9843H926.845V43.9843H927.301V39.9843ZM924.845 41.9843V162.841H928.845V41.9843H924.845ZM926.845 160.841H904.954V164.841H926.845V160.841ZM906.954 162.841V3.2189H902.954V162.841H906.954ZM1074.4 3.2189V1.2189H1072.7L1072.43 2.89742L1074.4 3.2189ZM1108.38 3.2189L1110.35 2.89742L1110.08 1.2189H1108.38V3.2189ZM1134.37 162.841V164.841H1136.73L1136.35 162.52L1134.37 162.841ZM1109.29 162.841L1107.31 163.126L1107.56 164.841H1109.29V162.841ZM1104.73 131.145L1106.71 130.86L1102.73 131.145H1104.73ZM1104.73 131.601V133.601H1106.73V131.601H1104.73ZM1076.23 131.601V129.601H1074.5L1074.25 131.312L1076.23 131.601ZM1071.66 162.841V164.841H1073.39L1073.64 163.13L1071.66 162.841ZM1048.41 162.841L1046.43 162.52L1046.05 164.841H1048.41V162.841ZM1101.77 109.938V111.938H1104.07L1103.75 109.657L1101.77 109.938ZM1090.59 31.0388L1092.57 30.7584L1092.33 29.0388H1090.59V31.0388ZM1090.14 31.0388V29.0388H1088.39L1088.15 30.764L1090.14 31.0388ZM1079.19 109.938L1077.21 109.663L1076.89 111.938H1079.19V109.938ZM1074.4 5.2189H1108.38V1.2189H1074.4V5.2189ZM1106.4 3.54038L1132.4 163.163L1136.35 162.52L1110.35 2.89742L1106.4 3.54038ZM1134.37 160.841H1109.29V164.841H1134.37V160.841ZM1111.27 162.556L1106.71 130.86L1102.75 131.43L1107.31 163.126L1111.27 162.556ZM1102.73 131.145V131.601H1106.73V131.145H1102.73ZM1104.73 129.601H1076.23V133.601H1104.73V129.601ZM1074.25 131.312L1069.69 162.552L1073.64 163.13L1078.2 131.89L1074.25 131.312ZM1071.66 160.841H1048.41V164.841H1071.66V160.841ZM1050.38 163.163L1076.38 3.54038L1072.43 2.89742L1046.43 162.52L1050.38 163.163ZM1103.75 109.657L1092.57 30.7584L1088.61 31.3193L1099.78 110.218L1103.75 109.657ZM1090.59 29.0388H1090.14V33.0388H1090.59V29.0388ZM1088.15 30.764L1077.21 109.663L1081.17 110.213L1092.12 31.3136L1088.15 30.764ZM1079.19 111.938H1101.77V107.938H1079.19V111.938ZM1173.91 3.2189V1.2189H1171.91V3.2189H1173.91ZM1198.99 3.2189H1200.99V1.2189H1198.99V3.2189ZM1198.99 140.038H1196.99V142.038H1198.99V140.038ZM1240.26 140.038H1242.26V138.038H1240.26V140.038ZM1240.26 162.841V164.841H1242.26V162.841H1240.26ZM1173.91 162.841H1171.91V164.841H1173.91V162.841ZM1173.91 5.2189H1198.99V1.2189H1173.91V5.2189ZM1196.99 3.2189V140.038H1200.99V3.2189H1196.99ZM1198.99 142.038H1240.26V138.038H1198.99V142.038ZM1238.26 140.038V162.841H1242.26V140.038H1238.26ZM1240.26 160.841H1173.91V164.841H1240.26V160.841ZM1175.91 162.841V3.2189H1171.91V162.841H1175.91ZM1299.93 3.2189V1.2189H1298.23L1297.96 2.89742L1299.93 3.2189ZM1333.91 3.2189L1335.88 2.89742L1335.61 1.2189H1333.91V3.2189ZM1359.9 162.841V164.841H1362.25L1361.88 162.52L1359.9 162.841ZM1334.82 162.841L1332.84 163.126L1333.09 164.841H1334.82V162.841ZM1330.26 131.145L1332.24 130.86L1328.26 131.145H1330.26ZM1330.26 131.601V133.601H1332.26V131.601H1330.26ZM1301.75 131.601V129.601H1300.03L1299.78 131.312L1301.75 131.601ZM1297.19 162.841V164.841H1298.92L1299.17 163.13L1297.19 162.841ZM1273.93 162.841L1271.96 162.52L1271.58 164.841H1273.93V162.841ZM1327.29 109.938V111.938H1329.6L1329.27 109.657L1327.29 109.938ZM1316.12 31.0388L1318.1 30.7584L1317.86 29.0388H1316.12V31.0388ZM1315.66 31.0388V29.0388H1313.92L1313.68 30.764L1315.66 31.0388ZM1304.72 109.938L1302.74 109.663L1302.42 111.938H1304.72V109.938ZM1299.93 5.2189H1333.91V1.2189H1299.93V5.2189ZM1331.93 3.54038L1357.93 163.163L1361.88 162.52L1335.88 2.89742L1331.93 3.54038ZM1359.9 160.841H1334.82V164.841H1359.9V160.841ZM1336.8 162.556L1332.24 130.86L1328.28 131.43L1332.84 163.126L1336.8 162.556ZM1328.26 131.145V131.601H1332.26V131.145H1328.26ZM1330.26 129.601H1301.75V133.601H1330.26V129.601ZM1299.78 131.312L1295.21 162.552L1299.17 163.13L1303.73 131.89L1299.78 131.312ZM1297.19 160.841H1273.93V164.841H1297.19V160.841ZM1275.91 163.163L1301.9 3.54038L1297.96 2.89742L1271.96 162.52L1275.91 163.163ZM1329.27 109.657L1318.1 30.7584L1314.14 31.3193L1325.31 110.218L1329.27 109.657ZM1316.12 29.0388H1315.66V33.0388H1316.12V29.0388ZM1313.68 30.764L1302.74 109.663L1306.7 110.213L1317.65 31.3136L1313.68 30.764ZM1304.72 111.938H1327.29V107.938H1304.72V111.938ZM1399.44 3.2189V1.2189H1397.44V3.2189H1399.44ZM1424.52 3.2189H1426.52V1.2189H1424.52V3.2189ZM1424.52 70.4883H1422.52L1426.33 71.3458L1424.52 70.4883ZM1456.44 3.2189V1.2189H1455.18L1454.64 2.36141L1456.44 3.2189ZM1481.53 3.2189L1483.31 4.12717L1484.79 1.2189H1481.53V3.2189ZM1451.66 61.8231L1449.87 60.9149L1449.51 61.6297L1449.74 62.3982L1451.66 61.8231ZM1481.98 162.841V164.841H1484.67L1483.9 162.266L1481.98 162.841ZM1455.76 162.841L1453.84 163.413L1454.27 164.841H1455.76V162.841ZM1434.55 91.6953L1436.47 91.124L1435.02 86.2464L1432.76 90.809L1434.55 91.6953ZM1424.52 111.99L1422.73 111.104L1422.52 111.523V111.99H1424.52ZM1424.52 162.841V164.841H1426.52V162.841H1424.52ZM1399.44 162.841H1397.44V164.841H1399.44V162.841ZM1399.44 5.2189H1424.52V1.2189H1399.44V5.2189ZM1422.52 3.2189V70.4883H1426.52V3.2189H1422.52ZM1426.33 71.3458L1458.25 4.07639L1454.64 2.36141L1422.71 69.6309L1426.33 71.3458ZM1456.44 5.2189H1481.53V1.2189H1456.44V5.2189ZM1479.75 2.31063L1449.87 60.9149L1453.44 62.7314L1483.31 4.12717L1479.75 2.31063ZM1449.74 62.3982L1480.07 163.416L1483.9 162.266L1453.57 61.248L1449.74 62.3982ZM1481.98 160.841H1455.76V164.841H1481.98V160.841ZM1457.68 162.27L1436.47 91.124L1432.64 92.2666L1453.84 163.413L1457.68 162.27ZM1432.76 90.809L1422.73 111.104L1426.31 112.877L1436.35 92.5817L1432.76 90.809ZM1422.52 111.99V162.841H1426.52V111.99H1422.52ZM1424.52 160.841H1399.44V164.841H1424.52V160.841ZM1401.44 162.841V3.2189H1397.44V162.841H1401.44ZM1540.6 3.2189V1.2189H1538.9L1538.63 2.89742L1540.6 3.2189ZM1574.58 3.2189L1576.55 2.89742L1576.28 1.2189H1574.58V3.2189ZM1600.57 162.841V164.841H1602.93L1602.55 162.52L1600.57 162.841ZM1575.49 162.841L1573.51 163.126L1573.76 164.841H1575.49V162.841ZM1570.93 131.145L1572.91 130.86L1568.93 131.145H1570.93ZM1570.93 131.601V133.601H1572.93V131.601H1570.93ZM1542.43 131.601V129.601H1540.7L1540.45 131.312L1542.43 131.601ZM1537.87 162.841V164.841H1539.59L1539.84 163.13L1537.87 162.841ZM1514.61 162.841L1512.63 162.52L1512.25 164.841H1514.61V162.841ZM1567.97 109.938V111.938H1570.27L1569.95 109.657L1567.97 109.938ZM1556.79 31.0388L1558.77 30.7584L1558.53 29.0388H1556.79V31.0388ZM1556.34 31.0388V29.0388H1554.59L1554.36 30.764L1556.34 31.0388ZM1545.39 109.938L1543.41 109.663L1543.09 111.938H1545.39V109.938ZM1540.6 5.2189H1574.58V1.2189H1540.6V5.2189ZM1572.6 3.54038L1598.6 163.163L1602.55 162.52L1576.55 2.89742L1572.6 3.54038ZM1600.57 160.841H1575.49V164.841H1600.57V160.841ZM1577.47 162.556L1572.91 130.86L1568.95 131.43L1573.51 163.126L1577.47 162.556ZM1568.93 131.145V131.601H1572.93V131.145H1568.93ZM1570.93 129.601H1542.43V133.601H1570.93V129.601ZM1540.45 131.312L1535.89 162.552L1539.84 163.13L1544.41 131.89L1540.45 131.312ZM1537.87 160.841H1514.61V164.841H1537.87V160.841ZM1516.58 163.163L1542.58 3.54038L1538.63 2.89742L1512.63 162.52L1516.58 163.163ZM1569.95 109.657L1558.77 30.7584L1554.81 31.3193L1565.99 110.218L1569.95 109.657ZM1556.79 29.0388H1556.34V33.0388H1556.79V29.0388ZM1554.36 30.764L1543.41 109.663L1547.37 110.213L1558.32 31.3136L1554.36 30.764ZM1545.39 111.938H1567.97V107.938H1545.39V111.938ZM1644.46 154.86L1642.96 156.191L1642.97 156.199L1642.98 156.207L1644.46 154.86ZM1635.11 115.867V113.867H1633.11V115.867H1635.11ZM1658.82 115.867H1660.82V113.867H1658.82V115.867ZM1681.4 138.67L1679.9 137.347L1679.89 137.353L1681.4 138.67ZM1680.26 108.798L1678.53 109.812L1678.54 109.823L1678.55 109.834L1680.26 108.798ZM1663.38 90.3271L1662.06 91.8268L1662.07 91.8357L1663.38 90.3271ZM1641.72 65.6997L1639.97 66.6649L1639.97 66.6726L1639.98 66.6802L1641.72 65.6997ZM1645.14 11.4281L1646.6 12.7927L1646.61 12.7847L1646.62 12.7766L1645.14 11.4281ZM1700.1 11.4281L1698.59 12.7404L1698.6 12.7579L1698.62 12.775L1700.1 11.4281ZM1709.45 47.6852V49.6852H1711.45V47.6852H1709.45ZM1685.73 47.6852H1683.73V49.6852H1685.73V47.6852ZM1682.54 27.6183L1680.99 28.8897L1681.01 28.9128L1681.03 28.9353L1682.54 27.6183ZM1665.21 55.2102L1663.5 56.2468L1663.51 56.2655L1663.52 56.2839L1665.21 55.2102ZM1682.31 73.4528L1681 74.9614L1681 74.962L1682.31 73.4528ZM1703.97 98.3082L1702.21 99.2457L1702.21 99.2457L1703.97 98.3082ZM1700.1 154.632L1698.64 153.266L1698.63 153.275L1698.62 153.284L1700.1 154.632ZM1672.05 163.122C1660.26 163.122 1651.68 159.818 1645.93 153.513L1642.98 156.207C1649.7 163.584 1659.51 167.122 1672.05 167.122V163.122ZM1645.95 153.529C1640.15 147.022 1637.11 137.606 1637.11 124.988H1633.11C1633.11 138.214 1636.3 148.713 1642.96 156.191L1645.95 153.529ZM1637.11 124.988V115.867H1633.11V124.988H1637.11ZM1635.11 117.867H1658.82V113.867H1635.11V117.867ZM1656.82 115.867V126.812H1660.82V115.867H1656.82ZM1656.82 126.812C1656.82 132.212 1657.95 136.634 1660.54 139.727C1663.19 142.887 1667.08 144.318 1671.82 144.318V140.318C1667.9 140.318 1665.29 139.165 1663.6 137.157C1661.86 135.081 1660.82 131.75 1660.82 126.812H1656.82ZM1671.82 144.318C1676.46 144.318 1680.28 142.981 1682.9 139.987L1679.89 137.353C1678.26 139.224 1675.69 140.318 1671.82 140.318V144.318ZM1682.9 139.993C1685.65 136.873 1686.82 132.18 1686.82 126.356H1682.82C1682.82 131.782 1681.71 135.298 1679.9 137.347L1682.9 139.993ZM1686.82 126.356C1686.82 119.354 1685.22 113.132 1681.97 107.761L1678.55 109.834C1681.37 114.497 1682.82 119.98 1682.82 126.356H1686.82ZM1681.98 107.784C1678.78 102.335 1672.96 96.0095 1664.7 88.8185L1662.07 91.8357C1670.23 98.9347 1675.66 104.923 1678.53 109.812L1681.98 107.784ZM1664.71 88.8275C1654.44 79.7715 1647.41 71.7353 1643.46 64.7191L1639.98 66.6802C1644.24 74.2581 1651.65 82.6402 1662.06 91.8268L1664.71 88.8275ZM1643.47 64.7345C1639.54 57.6073 1637.56 49.5832 1637.56 40.6162H1633.56C1633.56 50.1957 1635.69 58.894 1639.97 66.6649L1643.47 64.7345ZM1637.56 40.6162C1637.56 28.3252 1640.67 19.1501 1646.6 12.7927L1643.68 10.0634C1636.84 17.388 1633.56 27.6715 1633.56 40.6162H1637.56ZM1646.62 12.7766C1652.52 6.30928 1661.19 2.93858 1672.96 2.93858V-1.06142C1660.41 -1.06142 1650.53 2.56087 1643.66 10.0795L1646.62 12.7766ZM1672.96 2.93858C1684.57 2.93858 1692.99 6.30556 1698.59 12.7404L1701.61 10.1157C1695.04 2.56459 1685.37 -1.06142 1672.96 -1.06142V2.93858ZM1698.62 12.775C1704.4 19.1237 1707.45 28.4509 1707.45 41.0722H1711.45C1711.45 27.8499 1708.26 17.4143 1701.57 10.0811L1698.62 12.775ZM1707.45 41.0722V47.6852H1711.45V41.0722H1707.45ZM1709.45 45.6852H1685.73V49.6852H1709.45V45.6852ZM1687.73 47.6852V39.476H1683.73V47.6852H1687.73ZM1687.73 39.476C1687.73 33.8282 1686.65 29.2781 1684.04 26.3013L1681.03 28.9353C1682.68 30.8232 1683.73 34.1782 1683.73 39.476H1687.73ZM1684.08 26.3469C1681.49 23.1978 1677.74 21.7418 1673.19 21.7418V25.7418C1676.84 25.7418 1679.33 26.8701 1680.99 28.8897L1684.08 26.3469ZM1673.19 21.7418C1668.58 21.7418 1664.8 23.1631 1662.24 26.2923C1659.73 29.346 1658.65 33.7043 1658.65 39.0199H1662.65C1662.65 34.1501 1663.65 30.8694 1665.33 28.8303C1666.94 26.8668 1669.43 25.7418 1673.19 25.7418V21.7418ZM1658.65 39.0199C1658.65 45.1682 1660.27 50.9226 1663.5 56.2468L1666.92 54.1736C1664.06 49.4644 1662.65 44.4253 1662.65 39.0199H1658.65ZM1663.52 56.2839C1666.87 61.5452 1672.74 67.7763 1681 74.9614L1683.62 71.9442C1675.46 64.8392 1669.93 58.9086 1666.89 54.1364L1663.52 56.2839ZM1681 74.962C1691.41 84.0129 1698.42 92.109 1702.21 99.2457L1705.74 97.3708C1701.62 89.6094 1694.19 81.1352 1683.62 71.9436L1681 74.962ZM1702.21 99.2457C1705.98 106.356 1707.9 114.764 1707.9 124.532H1711.9C1711.9 114.234 1709.87 105.159 1705.74 97.3708L1702.21 99.2457ZM1707.9 124.532C1707.9 137.287 1704.72 146.762 1698.64 153.266L1701.56 155.998C1708.55 148.517 1711.9 137.925 1711.9 124.532H1707.9ZM1698.62 153.284C1692.72 159.746 1683.98 163.122 1672.05 163.122V167.122C1684.75 167.122 1694.7 163.504 1701.57 155.981L1698.62 153.284Z" fill="#FF0000"/>
</svg>
