<svg width="520" height="445" viewBox="0 0 520 445" fill="none" xmlns="http://www.w3.org/2000/svg">
<path d="M10 5.272H5.272V10V344.258V348.986H10H145.066H149.794V344.258V317.035H179.446H184.174V312.307V211.538V206.81H179.446H149.794V149.906H179.446H184.174V145.178V76.3601V71.6321H179.446H149.794V41.9512V37.2232H145.066H117.869V10V5.272H113.141H10ZM104.803 138.076L81.0822 138.006V83.5406L104.803 83.5142V138.076ZM104.803 273.28H81.0822V216.327H104.803V273.28Z" fill="url(#paint0_linear_2026_4)" stroke="black" stroke-width="9.456"/>
<path d="M225.62 5.272H220.892V10V344.258V348.986H225.62H294.381H299.109V344.258V10V5.272H294.381H225.62Z" fill="url(#paint1_linear_2026_4)" stroke="black" stroke-width="9.456"/>
<path d="M340.554 5.272H335.826V10V345.721V350.449H340.554H409.315H414.043V345.721V216.266H436.511V345.721V350.449H441.239H510H514.728V345.721V211.538V206.81H510H480.348V149.906H510H514.728V145.178V44.4089V39.6809H510H480.348V10V5.272H475.62H340.554ZM436.511 137.992H414.043V81.0881H436.511V137.992Z" fill="url(#paint2_linear_2026_4)" stroke="black" stroke-width="9.456"/>
<path d="M144.02 419.17C140.172 419.17 136.974 418.78 134.426 418C131.878 417.22 129.876 415.894 128.42 414.022C126.964 412.098 125.924 409.498 125.3 406.222C124.676 402.894 124.364 398.708 124.364 393.664C124.364 388.672 124.702 384.538 125.378 381.262C126.106 377.934 127.302 375.334 128.966 373.462C130.63 371.538 132.866 370.16 135.674 369.328C138.534 368.496 142.122 368.08 146.438 368.08C148.05 368.08 149.818 368.184 151.742 368.392C153.718 368.548 155.564 368.782 157.28 369.094C158.996 369.354 160.322 369.666 161.258 370.03L159.542 380.95C158.19 380.638 156.734 380.378 155.174 380.17C153.614 379.962 152.106 379.806 150.65 379.702C149.194 379.546 147.92 379.468 146.828 379.468C143.968 379.468 141.966 379.832 140.822 380.56C139.678 381.288 139.106 382.77 139.106 385.006V408.094H162.35L163.442 415.816C160.842 417.012 158.008 417.87 154.94 418.39C151.872 418.91 148.232 419.17 144.02 419.17ZM150.494 415.66V399.436H145.736V389.374H163.442V415.816L150.494 415.66ZM166.735 418L179.683 369.25H200.977L213.925 418H200.197L190.681 382.354H189.979L180.463 418H166.735ZM175.393 409.498V399.436H205.267V409.498H175.393ZM217.992 418L221.034 369.25H238.428L245.682 396.862H246.228L253.482 369.25H270.954L273.996 418H260.346L258.786 390.778H258.24L251.22 418H240.69L233.592 390.778H233.124L231.642 418H217.992ZM282.08 369.25H295.808V418H282.08V369.25ZM305.474 418V369.25H318.968L331.604 389.53C332.332 390.726 332.826 391.74 333.086 392.572C333.398 393.352 333.554 394.132 333.554 394.912H334.022V369.25H347.75V418H334.178L321.62 397.72C320.892 396.472 320.372 395.458 320.06 394.678C319.8 393.846 319.67 393.066 319.67 392.338H319.202V418H305.474ZM375.431 419.17C371.583 419.17 368.385 418.78 365.837 418C363.289 417.22 361.287 415.894 359.831 414.022C358.375 412.098 357.335 409.498 356.711 406.222C356.087 402.894 355.775 398.708 355.775 393.664C355.775 388.672 356.113 384.538 356.789 381.262C357.517 377.934 358.713 375.334 360.377 373.462C362.041 371.538 364.277 370.16 367.085 369.328C369.945 368.496 373.533 368.08 377.849 368.08C379.461 368.08 381.229 368.184 383.153 368.392C385.129 368.548 386.975 368.782 388.691 369.094C390.407 369.354 391.733 369.666 392.669 370.03L390.953 380.95C389.601 380.638 388.145 380.378 386.585 380.17C385.025 379.962 383.517 379.806 382.061 379.702C380.605 379.546 379.331 379.468 378.239 379.468C375.379 379.468 373.377 379.832 372.233 380.56C371.089 381.288 370.517 382.77 370.517 385.006V408.094H393.761L394.853 415.816C392.253 417.012 389.419 417.87 386.351 418.39C383.283 418.91 379.643 419.17 375.431 419.17ZM381.905 415.66V399.436H377.147V389.374H394.853V415.816L381.905 415.66Z" fill="url(#paint3_linear_2026_4)"/>
<defs>
<linearGradient id="paint0_linear_2026_4" x1="11.0167" y1="-12.236" x2="387.088" y2="93.3848" gradientUnits="userSpaceOnUse">
<stop stop-color="#FF0000"/>
<stop offset="1" stop-color="#A2000A"/>
</linearGradient>
<linearGradient id="paint1_linear_2026_4" x1="226.033" y1="-12.236" x2="388.568" y2="6.28798" gradientUnits="userSpaceOnUse">
<stop stop-color="#FF0000"/>
<stop offset="1" stop-color="#A2000A"/>
</linearGradient>
<linearGradient id="paint2_linear_2026_4" x1="341.57" y1="-12.3333" x2="717.881" y2="92.8943" gradientUnits="userSpaceOnUse">
<stop stop-color="#FF0000"/>
<stop offset="1" stop-color="#A2000A"/>
</linearGradient>
<linearGradient id="paint3_linear_2026_4" x1="393.84" y1="404" x2="137.838" y2="340.05" gradientUnits="userSpaceOnUse">
<stop stop-color="#F93D3D"/>
<stop offset="0.463542" stop-color="#BB0B0B"/>
<stop offset="1" stop-color="#B50A5C"/>
</linearGradient>
</defs>
</svg>
